<?xml version="1.0" encoding="utf-8"?>
<!-- Generator: Adobe Illustrator 16.0.0, SVG Export Plug-In . SVG Version: 6.00 Build 0)  -->
<!DOCTYPE svg PUBLIC "-//W3C//DTD SVG 1.1//EN" "http://www.w3.org/Graphics/SVG/1.1/DTD/svg11.dtd">
<svg version="1.1" id="Layer_1" xmlns="http://www.w3.org/2000/svg" xmlns:xlink="http://www.w3.org/1999/xlink" x="0px" y="0px"
	 width="864px" height="864px" viewBox="0 0 864 864" enable-background="new 0 0 864 864" xml:space="preserve">
<path fill="#D42027" d="M296.879,360.014c0,0-41.957-32.389-27.725-115.322C283.012,163.936,373.182,88.688,484.09,98.457
	c94.709,8.342,145.666,63.398,175.68,101.09c31.65,39.748,60.85,86.365,60.85,86.365l-15.705,9.816c0,0-32.387-63.795-72.625-62.814
	c-40.24,0.982-6.381,54.227-26.254,100.6c-16.094,37.553-57.17,40.729-57.17,40.729s-21.592-106.977-97.164-107.957
	C376.131,265.303,300.805,312.904,296.879,360.014z"/>
<g>
	<path fill="#FFFFFF" d="M700.01,463.555c0,0,29.443-25.516,13.738-80.479c-13.985-48.949-76.237-62.088-121.58-46.35
		c2.203-5.041,3.994-10.755,5.033-17.199c6.793-42.113-3.23-76.27-56.678-116.301c-63.041-47.219-148.689-28.707-192.855-6.625
		c-44.164,22.082-74.867,64.215-66.982,108.941c6.82,38.684,18.893,41.711,18.893,41.711s-58.887-48.582-121.699,8.342
		s-3.926,111.887-3.926,111.887s-72.627,21.59-49.072,88.33c23.555,66.736,62.811,47.109,62.811,47.109
		s-39.256,80.477,39.26,123.662c78.516,43.182,129.551-11.777,129.551-11.777s13.74,49.07,78.516,51.037
		c64.777,1.961,80.479-49.076,80.479-49.076s61.832,58.398,135.439,7.852c69.656-47.83,35.332-121.697,35.332-121.697
		s64.775-3.928,66.74-64.775C754.969,477.295,700.01,463.555,700.01,463.555z"/>
	<circle fill="#F8F9F7" cx="714.239" cy="290.82" r="48.581"/>
</g>
<path fill="#EFC7B0" d="M570.838,363.158c-0.811-17.053-14.92-23.19-17.828-24.372c-0.25-0.231-0.504-0.455-0.758-0.678
	c2.811-4.49,31.25-52.432-14.518-85.381c-70.621-50.844-88.518-40.721-138.205-34.858c0,0-37.861,15.405-62.061,36.953
	c-32.818,29.223-25.467,75.685-25.467,75.685s-2.788,2.016-6.453,5.485c-5.572,5.028-12.891,12.979-16.121,23.958
	c-4.906,16.684,6.871,38.277,6.871,38.277s0.021,0.006,0.058,0.016c43.38,45.14,112.014,11.882,142.256,11.882
	c26.807,0,69.81,33.533,116.787-11.897C563.063,390.817,571.82,383.767,570.838,363.158z M379.514,299.019
	c5.504-5.85,10.406-9.059,17.182-12.04c6.773-2.98,14.756-3.9,21.559-0.982c1.152,0.492,2.295,1.122,3.055,2.118
	c1.375,1.803,1.533,4.164,1.26,6.414c-0.193,1.6-0.758,3.381-1.473,4.822c-1.383,2.789-4.73,4.451-7.787,3.869
	c-3.059-0.58-5.559-3.357-5.82-6.457c-0.148,3.604-2.492,7.154-5.926,8.254c-3.436,1.1-7.684-0.723-8.848-4.137
	c-0.24,3.139-0.516,6.404-2.107,9.121c-1.592,2.719-4.916,4.697-7.904,3.705c-1.254-0.416-2.611-1.182-3.512-2.146
	c-1.506-1.619-2.682-3.861-2.809-6.471C376.284,303.054,378.118,300.503,379.514,299.019z M441.316,294.12
	c-0.232-2.254-0.033-4.613,1.373-6.391c0.777-0.985,1.934-1.59,3.092-2.063c6.852-2.797,14.82-1.738,21.539,1.364
	c6.721,3.1,11.564,6.396,16.965,12.344c1.369,1.508,3.16,4.092,3.021,6.123c-0.172,2.607-1.385,4.83-2.922,6.422
	c-0.916,0.949-2.287,1.689-3.551,2.084c-3.004,0.939-6.293-1.1-7.834-3.846c-1.545-2.744-1.764-6.012-1.947-9.156
	c-1.225,3.393-5.504,5.137-8.92,3.977c-3.412-1.16-5.693-4.75-5.779-8.355c-0.316,3.094-2.867,5.826-5.934,6.354
	c-3.066,0.525-6.381-1.195-7.715-4.006C442.016,297.513,441.48,295.724,441.316,294.12z"/>
<path fill="#ED1C24" d="M433.264,357.23c21.663,0,44.872-2.643,59.959,12.84c16.805,17.246,14.312,61.93-57.639,61.93
	s-80.151-29.144-69.63-52.49C378.72,351.19,414.486,357.23,433.264,357.23z"/>
<g>
	<path fill="#B2D6F1" d="M700.01,463.555c0,0,29.443-25.516,13.738-80.479c-13.699-47.943-73.691-61.523-118.76-47.275
		c38.768-6.283,83.18,7.963,94.312,46.93c14.43,50.502-12.625,73.949-12.625,73.949s50.5,12.625,48.697,68.539
		s-61.322,59.52-61.322,59.52s31.537,67.875-32.465,111.826c-67.637,46.443-124.451-7.217-124.451-7.217
		s-14.432,46.896-73.951,45.092c-59.52-1.803-72.145-46.895-72.145-46.895s-46.895,50.5-119.041,10.82
		c-72.145-39.68-36.072-113.627-36.072-113.627s-36.072,18.037-57.717-43.285c-21.643-61.326,45.092-81.166,45.092-81.166
		s-54.107-50.502,3.607-102.807c24.596-22.289,50.156-24.574,71.412-19.885c-25.162-8.932-58.559-10.893-90.441,18
		c-62.812,56.924-3.926,111.887-3.926,111.887s-72.627,21.59-49.072,88.33c23.555,66.736,62.811,47.109,62.811,47.109
		s-39.256,80.477,39.26,123.662c78.516,43.182,129.551-11.777,129.551-11.777s13.74,49.07,78.516,51.037
		c64.777,1.961,80.479-49.076,80.479-49.076s61.832,58.398,135.439,7.852c69.656-47.83,35.332-121.697,35.332-121.697
		s64.775-3.928,66.74-64.775C754.969,477.295,700.01,463.555,700.01,463.555z"/>
	<path fill="#B2D6F1" d="M556.717,241.748c-50.053-64.775-141.329-64.775-209.049-23.555
		c-35.102,24.301-50.371,68.406-36.77,107.348l2.42-2.334c0,0-14.23-54.225,51.281-96.918
		c65.51-42.691,153.106-6.623,174.452,19.139c21.348,25.764,22.643,47.564,19.875,63.672c-2.025,11.777-8.281,19.506-8.281,19.506
		s1.109,0.99,2.705,2.545C573.83,307.601,578.041,272.761,556.717,241.748z"/>
	<path fill="#B2D6F1" d="M715.711,322.473c-25.348,0-46.137-19.422-48.359-44.193c-1.07,4.008-1.693,8.197-1.693,12.541
		c0,26.83,21.752,48.582,48.582,48.582c26.828,0,48.58-21.752,48.58-48.582c0-1.482-0.092-2.941-0.221-4.391
		C757.062,307.174,738.199,322.473,715.711,322.473z"/>
	<path fill="#B2D6F1" d="M620.756,372.527c-0.719,0.197-1.434,0.441-2.15,0.697c0.857,9.582-3.314,24.627-11.414,33.152
		c-13.219,13.914-37.566,6.957-37.566,6.957s16,22.264-4.869,45.916c-20.871,23.652-55.887,4.408-55.887,4.408
		s-3.465,27.74-32.463,34.549c-30.611,7.189-46.611-27.828-46.611-27.828s-21.104,35.943-57.74,21.566
		c-17.238-6.764-17.625-33.855-17.625-33.855s-32,16.232-51.943-2.32c-16.211-15.08-2.086-44.521-2.086-44.521s-9.74,2.086-24.35,0
		c-14.609-2.088-22.957-18.783-20.174-38.262c0.033-0.242,0.08-0.455,0.119-0.684c-5.664-1.377-9.4,0.365-10.643,9.057
		c-2.945,20.611,5.889,38.277,21.346,40.484c15.457,2.209,25.764,0,25.764,0s-14.945,31.152,2.207,47.109
		c21.102,19.627,54.961,2.453,54.961,2.453s0.41,28.668,18.648,35.824c38.766,15.211,61.096-22.818,61.096-22.818
		s16.93,37.049,49.316,29.443c30.684-7.207,34.352-36.561,34.352-36.561s37.049,20.365,59.133-4.66
		c22.082-25.027,5.152-48.582,5.152-48.582s25.762,7.361,39.748-7.361C631.062,401.971,634.006,368.846,620.756,372.527z"/>
</g>
<g>
	<ellipse fill="#221A15" cx="408.371" cy="329.295" rx="7.361" ry="12.438"/>
	<ellipse fill="#221A15" cx="458.059" cy="329.295" rx="7.361" ry="12.438"/>
</g>
<path fill="#FFFFFF" d="M559.153,283.367c5.491-7.257-0.656-21.268-13.731-31.293c-5.328-4.085-10.977-6.853-16.18-8.237
	c0.406-0.949,0.652-1.976,0.715-3.077c0.511-8.972-11.186-19.398-26.125-23.289c-2.306-0.601-4.554-1.009-6.71-1.24
	c-4.292-12.703-23.573-22.06-44.444-21.196c-11.799,0.49-21.683,4.148-27.823,9.552c-6.694-1.923-15.5-1.824-24.104,0.738
	c-10.208,3.041-17.458,8.749-19.589,14.604c-4.252,0.43-8.722,1.487-13.08,3.21c-6.85,2.709-12.175,6.566-15.345,10.678
	c-7.022,0.538-15.368,3.824-22.599,9.438c-11.003,8.543-15.635,19.504-11.438,25.881c-3.939,4.094-7.458,9.551-9.844,15.744
	c-5.548,14.406-5.711,44.11,3.146,45.627c8.857,1.518,32.712-20.047,38.261-34.454c2.768-7.185,2.389-12.561,1.316-17.773
	c3.882-1.597,7.003,2.815,10.628,0c4.346-3.375,0.247-20.871,2.454-24.569c6.333,0.641,20.477,9.588,27.707,6.729
	c8.855-3.502,28.411-5.641,23.364-18.198c4.085-0.114-0.182,1.156,4.085-0.114c2.856-0.851,5.042,6.456,7.388,5.242
	c7.979,8.523,23.492,13.07,36.235-3.002c4.604-5.808,3.745,8.085,9.191,5.634c4.738,4.288,21.781-2.011,29.351-0.04
	c2.774,0.723-2.735,10.288-0.189,10.478c-1.375,7.671,0.782,16.771,11.628,25.088c3.526,2.703,12.202,3.757,15.79,5.295
	c-1.457,4.213,4.799,3.181,4.799,8.642c0,14.6,11.501,39.323,19,39.323c7.498,0,13.168-10.181,8.153-39.323
	c-0.98-5.698-0.956-11.126-2.573-15.478C558.777,283.779,558.983,283.591,559.153,283.367z"/>
</svg>
